<svg id="canvas" height="100%" xmlns="http://www.w3.org/2000/svg" version="1.1" xmlns:xlink="http://www.w3.org/1999/xlink" xmlns:svgjs="http://svgjs.dev/svgjs" viewBox="0 0 600 600"><rect width="600" height="600" fill="transparent"></rect><mask id="mask" mask-type="alpha" maskUnits="userSpaceOnUse"><rect transform="translate(0, 0)" width="600" height="600" fill="white"></rect></mask><svg><path transform="translate(0, 0 translate(30,30) rotate(180) translate(-30,-30)" d="M0 60C33.1371 60 60 33.1371 60 5.24537e-06L5.24537e-06 0L0 60Z" fill="#5a2fc7"></path></svg><svg><path transform="translate(0, 3600 translate(30,30) rotate(270) translate(-30,-30)" d="M0 60C33.1371 60 60 33.1371 60 5.24537e-06L5.24537e-06 0L0 60Z" fill="#d1b9f8"></path></svg><svg><path transform="
    translate(0, 120)
    " d="M0 0h60v60H0z" fill="
    #d1b9f8"></path></svg><svg><path transform="translate(0, 10800 translate(30,30) rotate(270) translate(-30,-30)" d="M0 60C33.1371 60 60 33.1371 60 5.24537e-06L5.24537e-06 0L0 60Z" fill="#b99af4"></path></svg><svg><path transform="translate(0,240) translate(30,30) rotate(270) translate(-30,-30)" fill="#e2d4ff" d="M60 0v60H0V0z"></path><path transform="translate(0,240) translate(30,30) rotate(270) translate(-30,-30)" fill="#5a2fc7" d="M60 0v60H0C0 26.863 26.863 0 60 0z"></path></svg><svg><path transform="translate(0, 300) translate(30,30) rotate(180) translate(-30,-30)" fill="#6d40d9" d="M0 0h60v60H0z"></path><circle cx="30" cy="30" r="30" transform="translate(0, 300) translate(30,30) rotate(180) translate(-30,-30)" fill="#f0e8ff"></circle></svg><svg><path transform="translate(0,360) translate(30,30) rotate(90) translate(-30,-30)" fill="#b99af4" d="M60 0v60H0V0z"></path><path transform="translate(0,360) translate(30,30) rotate(90) translate(-30,-30)" fill="#f0e8ff" d="M60 0v60H0C0 26.863 26.863 0 60 0z"></path></svg><svg><path transform="translate(0, 25200 translate(30,30) rotate(270) translate(-30,-30)" d="M0 60C33.1371 60 60 33.1371 60 5.24537e-06L5.24537e-06 0L0 60Z" fill="#b99af4"></path></svg><svg><circle cx="30" cy="30" r="30" transform="
    translate(0, 480)
    " fill="
    #8b5de8
    "></circle></svg><svg><circle cx="30" cy="30" r="30" transform="
    translate(0, 540)
    " fill="
    #d1b9f8
    "></circle></svg><svg><path transform="translate(3600, 0 translate(30,30) rotate(0) translate(-30,-30)" d="M0 60C33.1371 60 60 33.1371 60 5.24537e-06L5.24537e-06 0L0 60Z" fill="#e2d4ff"></path></svg><svg><path transform="
    translate(60, 60)
    " d="M0 0h60v60H0z" fill="
    #6d40d9"></path></svg><svg><path transform="
    translate(60, 120)
    " d="M0 0h60v60H0z" fill="
    #d1b9f8"></path></svg><svg><path transform="translate(3600, 10800 translate(30,30) rotate(0) translate(-30,-30)" d="M0 60C33.1371 60 60 33.1371 60 5.24537e-06L5.24537e-06 0L0 60Z" fill="#6d40d9"></path></svg><svg><path transform="translate(3600, 14400 translate(30,30) rotate(180) translate(-30,-30)" d="M0 60C33.1371 60 60 33.1371 60 5.24537e-06L5.24537e-06 0L0 60Z" fill="#5a2fc7"></path></svg><svg><path transform="
    translate(60, 300)
    " d="M0 0h60v60H0z" fill="
    #b99af4"></path></svg><svg><circle cx="30" cy="30" r="30" transform="
    translate(60, 360)
    " fill="
    #5a2fc7
    "></circle></svg><svg><path transform="translate(60,420) translate(30,30) rotate(90) translate(-30,-30)" fill="#d1b9f8" d="M60 0v60H0V0z"></path><path transform="translate(60,420) translate(30,30) rotate(90) translate(-30,-30)" fill="#b99af4" d="M60 0v60H0C0 26.863 26.863 0 60 0z"></path></svg><svg><path transform="translate(60,480) translate(30,30) rotate(90) translate(-30,-30)" fill="#b99af4" d="M60 0v60H0V0z"></path><path transform="translate(60,480) translate(30,30) rotate(90) translate(-30,-30)" fill="#b99af4" d="M60 0v60H0C0 26.863 26.863 0 60 0z"></path></svg><svg><path transform="translate(3600, 32400 translate(30,30) rotate(180) translate(-30,-30)" d="M0 60C33.1371 60 60 33.1371 60 5.24537e-06L5.24537e-06 0L0 60Z" fill="#5a2fc7"></path></svg><svg><circle cx="30" cy="30" r="30" transform="
    translate(120, 0)
    " fill="
    #b99af4
    "></circle></svg><svg><path transform="translate(120,60) translate(30,30) rotate(180) translate(-30,-30)" fill="#f0e8ff" d="M60 0v60H0V0z"></path><path transform="translate(120,60) translate(30,30) rotate(180) translate(-30,-30)" fill="#d1b9f8" d="M60 0v60H0C0 26.863 26.863 0 60 0z"></path></svg><svg><circle cx="30" cy="30" r="30" transform="
    translate(120, 120)
    " fill="
    #b99af4
    "></circle></svg><svg><path transform="translate(120, 180) translate(30,30) rotate(180) translate(-30,-30)" fill="#6d40d9" d="M0 0h60v60H0z"></path><circle cx="30" cy="30" r="30" transform="translate(120, 180) translate(30,30) rotate(180) translate(-30,-30)" fill="#6d40d9"></circle></svg><svg><path transform="translate(120, 240) translate(30,30) rotate(180) translate(-30,-30)" fill="#5a2fc7" d="M0 0h60v60H0z"></path><circle cx="30" cy="30" r="30" transform="translate(120, 240) translate(30,30) rotate(180) translate(-30,-30)" fill="#b99af4"></circle></svg><svg><path transform="translate(7200, 18000 translate(30,30) rotate(270) translate(-30,-30)" d="M0 60C33.1371 60 60 33.1371 60 5.24537e-06L5.24537e-06 0L0 60Z" fill="#d1b9f8"></path></svg><svg><path transform="translate(7200, 21600 translate(30,30) rotate(90) translate(-30,-30)" d="M0 60C33.1371 60 60 33.1371 60 5.24537e-06L5.24537e-06 0L0 60Z" fill="#6d40d9"></path></svg><svg><circle cx="30" cy="30" r="30" transform="
    translate(120, 420)
    " fill="
    #6d40d9
    "></circle></svg><svg><path transform="
    translate(120, 480)
    " d="M0 0h60v60H0z" fill="
    #6d40d9"></path></svg><svg><circle cx="30" cy="30" r="30" transform="
    translate(120, 540)
    " fill="
    #b99af4
    "></circle></svg><svg><path transform="translate(10800, 0 translate(30,30) rotate(0) translate(-30,-30)" d="M0 60C33.1371 60 60 33.1371 60 5.24537e-06L5.24537e-06 0L0 60Z" fill="#b99af4"></path></svg><svg><path transform="
    translate(180, 60)
    " d="M0 0h60v60H0z" fill="
    #6d40d9"></path></svg><svg><path transform="translate(180,120) translate(30,30) rotate(90) translate(-30,-30)" fill="#e2d4ff" d="M60 0v60H0V0z"></path><path transform="translate(180,120) translate(30,30) rotate(90) translate(-30,-30)" fill="#b99af4" d="M60 0v60H0C0 26.863 26.863 0 60 0z"></path></svg><svg><path transform="
    translate(180, 180)
    " d="M0 0h60v60H0z" fill="
    #b99af4"></path></svg><svg><circle cx="30" cy="30" r="30" transform="
    translate(180, 240)
    " fill="
    #d1b9f8
    "></circle></svg><svg><path transform="translate(180,300) translate(30,30) rotate(0) translate(-30,-30)" fill="#b99af4" d="M60 0v60H0V0z"></path><path transform="translate(180,300) translate(30,30) rotate(0) translate(-30,-30)" fill="#6d40d9" d="M60 0v60H0C0 26.863 26.863 0 60 0z"></path></svg><svg><path transform="
    translate(180, 360)
    " d="M0 0h60v60H0z" fill="
    #b99af4"></path></svg><svg><path transform="
    translate(180, 420)
    " d="M0 0h60v60H0z" fill="
    #d1b9f8"></path></svg><svg><path transform="
    translate(180, 480)
    " d="M0 0h60v60H0z" fill="
    #8b5de8"></path></svg><svg><path transform="translate(10800, 32400 translate(30,30) rotate(0) translate(-30,-30)" d="M0 60C33.1371 60 60 33.1371 60 5.24537e-06L5.24537e-06 0L0 60Z" fill="#e2d4ff"></path></svg><svg><path transform="translate(14400, 0 translate(30,30) rotate(180) translate(-30,-30)" d="M0 60C33.1371 60 60 33.1371 60 5.24537e-06L5.24537e-06 0L0 60Z" fill="#8b5de8"></path></svg><svg><path transform="translate(240, 60) translate(30,30) rotate(180) translate(-30,-30)" fill="#b99af4" d="M0 0h60v60H0z"></path><circle cx="30" cy="30" r="30" transform="translate(240, 60) translate(30,30) rotate(180) translate(-30,-30)" fill="#6d40d9"></circle></svg><svg><path transform="
    translate(240, 120)
    " d="M0 0h60v60H0z" fill="
    #b99af4"></path></svg><svg><path transform="
    translate(240, 180)
    " d="M0 0h60v60H0z" fill="
    #b99af4"></path></svg><svg><path transform="translate(14400, 14400 translate(30,30) rotate(0) translate(-30,-30)" d="M0 60C33.1371 60 60 33.1371 60 5.24537e-06L5.24537e-06 0L0 60Z" fill="#f0e8ff"></path></svg><svg><path transform="
    translate(240, 300)
    " d="M0 0h60v60H0z" fill="
    #b99af4"></path></svg><svg><path transform="translate(240, 360) translate(30,30) rotate(270) translate(-30,-30)" fill="#8b5de8" d="M0 0h60v60H0z"></path><circle cx="30" cy="30" r="30" transform="translate(240, 360) translate(30,30) rotate(270) translate(-30,-30)" fill="#e2d4ff"></circle></svg><svg><path transform="translate(240,420) translate(30,30) rotate(270) translate(-30,-30)" fill="#6d40d9" d="M60 0v60H0V0z"></path><path transform="translate(240,420) translate(30,30) rotate(270) translate(-30,-30)" fill="#b99af4" d="M60 0v60H0C0 26.863 26.863 0 60 0z"></path></svg><svg><path transform="translate(240,480) translate(30,30) rotate(180) translate(-30,-30)" fill="#6d40d9" d="M60 0v60H0V0z"></path><path transform="translate(240,480) translate(30,30) rotate(180) translate(-30,-30)" fill="#b99af4" d="M60 0v60H0C0 26.863 26.863 0 60 0z"></path></svg><svg><circle cx="30" cy="30" r="30" transform="
    translate(240, 540)
    " fill="
    #d1b9f8
    "></circle></svg><svg><path transform="translate(18000, 0 translate(30,30) rotate(270) translate(-30,-30)" d="M0 60C33.1371 60 60 33.1371 60 5.24537e-06L5.24537e-06 0L0 60Z" fill="#8b5de8"></path></svg><svg><path transform="
    translate(300, 60)
    " d="M0 0h60v60H0z" fill="
    #6d40d9"></path></svg><svg><path transform="translate(18000, 7200 translate(30,30) rotate(90) translate(-30,-30)" d="M0 60C33.1371 60 60 33.1371 60 5.24537e-06L5.24537e-06 0L0 60Z" fill="#e2d4ff"></path></svg><svg><path transform="
    translate(300, 180)
    " d="M0 0h60v60H0z" fill="
    #f0e8ff"></path></svg><svg><path transform="translate(300,240) translate(30,30) rotate(270) translate(-30,-30)" fill="#b99af4" d="M60 0v60H0V0z"></path><path transform="translate(300,240) translate(30,30) rotate(270) translate(-30,-30)" fill="#b99af4" d="M60 0v60H0C0 26.863 26.863 0 60 0z"></path></svg><svg><path transform="
    translate(300, 300)
    " d="M0 0h60v60H0z" fill="
    #5a2fc7"></path></svg><svg><path transform="translate(18000, 21600 translate(30,30) rotate(0) translate(-30,-30)" d="M0 60C33.1371 60 60 33.1371 60 5.24537e-06L5.24537e-06 0L0 60Z" fill="#6d40d9"></path></svg><svg><path transform="
    translate(300, 420)
    " d="M0 0h60v60H0z" fill="
    #d1b9f8"></path></svg><svg><path transform="translate(18000, 28800 translate(30,30) rotate(90) translate(-30,-30)" d="M0 60C33.1371 60 60 33.1371 60 5.24537e-06L5.24537e-06 0L0 60Z" fill="#6d40d9"></path></svg><svg><path transform="translate(300,540) translate(30,30) rotate(0) translate(-30,-30)" fill="#6d40d9" d="M60 0v60H0V0z"></path><path transform="translate(300,540) translate(30,30) rotate(0) translate(-30,-30)" fill="#d1b9f8" d="M60 0v60H0C0 26.863 26.863 0 60 0z"></path></svg><svg><path transform="translate(360,0) translate(30,30) rotate(270) translate(-30,-30)" fill="#8b5de8" d="M60 0v60H0V0z"></path><path transform="translate(360,0) translate(30,30) rotate(270) translate(-30,-30)" fill="#d1b9f8" d="M60 0v60H0C0 26.863 26.863 0 60 0z"></path></svg><svg><circle cx="30" cy="30" r="30" transform="
    translate(360, 60)
    " fill="
    #f0e8ff
    "></circle></svg><svg><path transform="translate(360,120) translate(30,30) rotate(180) translate(-30,-30)" fill="#f0e8ff" d="M60 0v60H0V0z"></path><path transform="translate(360,120) translate(30,30) rotate(180) translate(-30,-30)" fill="#b99af4" d="M60 0v60H0C0 26.863 26.863 0 60 0z"></path></svg><svg><path transform="
    translate(360, 180)
    " d="M0 0h60v60H0z" fill="
    #8b5de8"></path></svg><svg><path transform="translate(360,240) translate(30,30) rotate(270) translate(-30,-30)" fill="#b99af4" d="M60 0v60H0V0z"></path><path transform="translate(360,240) translate(30,30) rotate(270) translate(-30,-30)" fill="#b99af4" d="M60 0v60H0C0 26.863 26.863 0 60 0z"></path></svg><svg><path transform="translate(360, 300) translate(30,30) rotate(180) translate(-30,-30)" fill="#b99af4" d="M0 0h60v60H0z"></path><circle cx="30" cy="30" r="30" transform="translate(360, 300) translate(30,30) rotate(180) translate(-30,-30)" fill="#6d40d9"></circle></svg><svg><path transform="
    translate(360, 360)
    " d="M0 0h60v60H0z" fill="
    #e2d4ff"></path></svg><svg><path transform="translate(360,420) translate(30,30) rotate(90) translate(-30,-30)" fill="#b99af4" d="M60 0v60H0V0z"></path><path transform="translate(360,420) translate(30,30) rotate(90) translate(-30,-30)" fill="#b99af4" d="M60 0v60H0C0 26.863 26.863 0 60 0z"></path></svg><svg><circle cx="30" cy="30" r="30" transform="
    translate(360, 480)
    " fill="
    #e2d4ff
    "></circle></svg><svg><circle cx="30" cy="30" r="30" transform="
    translate(360, 540)
    " fill="
    #e2d4ff
    "></circle></svg><svg><path transform="translate(420,0) translate(30,30) rotate(270) translate(-30,-30)" fill="#6d40d9" d="M60 0v60H0V0z"></path><path transform="translate(420,0) translate(30,30) rotate(270) translate(-30,-30)" fill="#b99af4" d="M60 0v60H0C0 26.863 26.863 0 60 0z"></path></svg><svg><path transform="translate(25200, 3600 translate(30,30) rotate(0) translate(-30,-30)" d="M0 60C33.1371 60 60 33.1371 60 5.24537e-06L5.24537e-06 0L0 60Z" fill="#b99af4"></path></svg><svg><path transform="
    translate(420, 120)
    " d="M0 0h60v60H0z" fill="
    #6d40d9"></path></svg><svg><path transform="translate(420,180) translate(30,30) rotate(90) translate(-30,-30)" fill="#8b5de8" d="M60 0v60H0V0z"></path><path transform="translate(420,180) translate(30,30) rotate(90) translate(-30,-30)" fill="#6d40d9" d="M60 0v60H0C0 26.863 26.863 0 60 0z"></path></svg><svg><path transform="translate(25200, 14400 translate(30,30) rotate(270) translate(-30,-30)" d="M0 60C33.1371 60 60 33.1371 60 5.24537e-06L5.24537e-06 0L0 60Z" fill="#6d40d9"></path></svg><svg><path transform="translate(420,300) translate(30,30) rotate(180) translate(-30,-30)" fill="#b99af4" d="M60 0v60H0V0z"></path><path transform="translate(420,300) translate(30,30) rotate(180) translate(-30,-30)" fill="#6d40d9" d="M60 0v60H0C0 26.863 26.863 0 60 0z"></path></svg><svg><path transform="translate(25200, 21600 translate(30,30) rotate(180) translate(-30,-30)" d="M0 60C33.1371 60 60 33.1371 60 5.24537e-06L5.24537e-06 0L0 60Z" fill="#6d40d9"></path></svg><svg><circle cx="30" cy="30" r="30" transform="
    translate(420, 420)
    " fill="
    #6d40d9
    "></circle></svg><svg><path transform="translate(420,480) translate(30,30) rotate(90) translate(-30,-30)" fill="#e2d4ff" d="M60 0v60H0V0z"></path><path transform="translate(420,480) translate(30,30) rotate(90) translate(-30,-30)" fill="#f0e8ff" d="M60 0v60H0C0 26.863 26.863 0 60 0z"></path></svg><svg><path transform="
    translate(420, 540)
    " d="M0 0h60v60H0z" fill="
    #e2d4ff"></path></svg><svg><circle cx="30" cy="30" r="30" transform="
    translate(480, 0)
    " fill="
    #5a2fc7
    "></circle></svg><svg><path transform="
    translate(480, 60)
    " d="M0 0h60v60H0z" fill="
    #6d40d9"></path></svg><svg><path transform="translate(28800, 7200 translate(30,30) rotate(270) translate(-30,-30)" d="M0 60C33.1371 60 60 33.1371 60 5.24537e-06L5.24537e-06 0L0 60Z" fill="#b99af4"></path></svg><svg><path transform="translate(480,180) translate(30,30) rotate(90) translate(-30,-30)" fill="#6d40d9" d="M60 0v60H0V0z"></path><path transform="translate(480,180) translate(30,30) rotate(90) translate(-30,-30)" fill="#e2d4ff" d="M60 0v60H0C0 26.863 26.863 0 60 0z"></path></svg><svg><path transform="
    translate(480, 240)
    " d="M0 0h60v60H0z" fill="
    #6d40d9"></path></svg><svg><path transform="
    translate(480, 300)
    " d="M0 0h60v60H0z" fill="
    #d1b9f8"></path></svg><svg><path transform="translate(480, 360) translate(30,30) rotate(270) translate(-30,-30)" fill="#e2d4ff" d="M0 0h60v60H0z"></path><circle cx="30" cy="30" r="30" transform="translate(480, 360) translate(30,30) rotate(270) translate(-30,-30)" fill="#5a2fc7"></circle></svg><svg><path transform="translate(480,420) translate(30,30) rotate(180) translate(-30,-30)" fill="#d1b9f8" d="M60 0v60H0V0z"></path><path transform="translate(480,420) translate(30,30) rotate(180) translate(-30,-30)" fill="#f0e8ff" d="M60 0v60H0C0 26.863 26.863 0 60 0z"></path></svg><svg><circle cx="30" cy="30" r="30" transform="
    translate(480, 480)
    " fill="
    #5a2fc7
    "></circle></svg><svg><path transform="translate(28800, 32400 translate(30,30) rotate(90) translate(-30,-30)" d="M0 60C33.1371 60 60 33.1371 60 5.24537e-06L5.24537e-06 0L0 60Z" fill="#b99af4"></path></svg><svg><path transform="translate(540,0) translate(30,30) rotate(270) translate(-30,-30)" fill="#d1b9f8" d="M60 0v60H0V0z"></path><path transform="translate(540,0) translate(30,30) rotate(270) translate(-30,-30)" fill="#6d40d9" d="M60 0v60H0C0 26.863 26.863 0 60 0z"></path></svg><svg><path transform="translate(540, 60) translate(30,30) rotate(270) translate(-30,-30)" fill="#8b5de8" d="M0 0h60v60H0z"></path><circle cx="30" cy="30" r="30" transform="translate(540, 60) translate(30,30) rotate(270) translate(-30,-30)" fill="#8b5de8"></circle></svg><svg><path transform="translate(540, 120) translate(30,30) rotate(90) translate(-30,-30)" fill="#d1b9f8" d="M0 0h60v60H0z"></path><circle cx="30" cy="30" r="30" transform="translate(540, 120) translate(30,30) rotate(90) translate(-30,-30)" fill="#b99af4"></circle></svg><svg><path transform="translate(32400, 10800 translate(30,30) rotate(0) translate(-30,-30)" d="M0 60C33.1371 60 60 33.1371 60 5.24537e-06L5.24537e-06 0L0 60Z" fill="#d1b9f8"></path></svg><svg><path transform="translate(540, 240) translate(30,30) rotate(90) translate(-30,-30)" fill="#b99af4" d="M0 0h60v60H0z"></path><circle cx="30" cy="30" r="30" transform="translate(540, 240) translate(30,30) rotate(90) translate(-30,-30)" fill="#8b5de8"></circle></svg><svg><path transform="
    translate(540, 300)
    " d="M0 0h60v60H0z" fill="
    #6d40d9"></path></svg><svg><path transform="translate(540, 360) translate(30,30) rotate(0) translate(-30,-30)" fill="#b99af4" d="M0 0h60v60H0z"></path><circle cx="30" cy="30" r="30" transform="translate(540, 360) translate(30,30) rotate(0) translate(-30,-30)" fill="#b99af4"></circle></svg><svg><path transform="
    translate(540, 420)
    " d="M0 0h60v60H0z" fill="
    #8b5de8"></path></svg><svg><path transform="
    translate(540, 480)
    " d="M0 0h60v60H0z" fill="
    #6d40d9"></path></svg><svg><circle cx="30" cy="30" r="30" transform="
    translate(540, 540)
    " fill="
    #b99af4
    "></circle></svg></svg>